<svg width="600" height="600" viewBox="0 0 600 600" fill="none" xmlns="http://www.w3.org/2000/svg">
<path d="M0 20C0 8.9543 8.95431 0 20 0H180C191.046 0 200 8.95431 200 20V60C200 71.0457 208.954 80 220 80H380C391.046 80 400 71.0457 400 60V20C400 8.95431 408.954 0 420 0H480C491.046 0 500 8.95431 500 20V80C500 91.0457 508.954 100 520 100H580C591.046 100 600 108.954 600 120V493.2V580C600 591.046 591.046 600 580 600H297.619H120C108.954 600 100 591.046 100 580V451.8V400C100 388.954 91.0457 380 80 380H20C8.9543 380 0 371.046 0 360V20Z" fill="#D9D9D9"/>
</svg>